<svg xmlns="http://www.w3.org/2000/svg" viewBox="0 0 800 600" role="img" aria-label="Before aligners: crowded teeth">
<defs><linearGradient id="g-F4F1E4" x1="0" y1="0" x2="0" y2="1"><stop offset="0" stop-color="#CCC8B2"/><stop offset="0.35" stop-color="#F4F1E4"/><stop offset="1" stop-color="#F4F1E4"/></linearGradient><clipPath id="m"><path d="M100,270 Q400,160 700,270 Q400,530 100,270 Z"/></clipPath></defs>
<rect width="800" height="600" fill="#E9C6AE"/>
<g transform="translate(400 305) scale(1.15) translate(-400 -305)">
<path d="M100,270 Q400,160 700,270 Q400,530 100,270 Z" fill="none" stroke="#C8606E" stroke-width="64" stroke-linejoin="round"/>
<path d="M100,270 Q400,160 700,270 Q400,530 100,270 Z" fill="#3B1D26"/>
<g clip-path="url(#m)"><g><path d="M219.5,330.2 q0,-4 4,-4 h38.0 q4,0 4,4 v68.4 q0,15.6 -15.6,15.6 h-14.7 q-15.6,0 -15.6,-15.6 z" fill="url(#g-F4F1E4)" stroke="#CCC8B2" stroke-width="1.6"/><ellipse cx="237.0" cy="361.4" rx="7.4" ry="21.8" fill="#fff" opacity="0.38"/></g><g><path d="M268.5,322.3 q0,-4 4,-4 h36.0 q4,0 4,4 v69.0 q0,15.0 -15.0,15.0 h-14.1 q-15.0,0 -15.0,-15.0 z" fill="url(#g-F4F1E4)" stroke="#CCC8B2" stroke-width="1.6"/><ellipse cx="285.2" cy="353.6" rx="7.0" ry="21.8" fill="#fff" opacity="0.38"/></g><g><path d="M315.5,317.5 q0,-4 4,-4 h32.0 q4,0 4,4 v70.4 q0,13.6 -13.6,13.6 h-12.8 q-13.6,0 -13.6,-13.6 z" fill="url(#g-F4F1E4)" stroke="#CCC8B2" stroke-width="1.6"/><ellipse cx="330.7" cy="348.8" rx="6.4" ry="21.8" fill="#fff" opacity="0.38"/></g><g><path d="M358.5,315.3 q0,-4 4,-4 h32.0 q4,0 4,4 v70.4 q0,13.6 -13.6,13.6 h-12.8 q-13.6,0 -13.6,-13.6 z" fill="url(#g-F4F1E4)" stroke="#CCC8B2" stroke-width="1.6"/><ellipse cx="373.7" cy="346.6" rx="6.4" ry="21.8" fill="#fff" opacity="0.38"/></g><g><path d="M401.5,315.3 q0,-4 4,-4 h32.0 q4,0 4,4 v70.4 q0,13.6 -13.6,13.6 h-12.8 q-13.6,0 -13.6,-13.6 z" fill="url(#g-F4F1E4)" stroke="#CCC8B2" stroke-width="1.6"/><ellipse cx="416.7" cy="346.6" rx="6.4" ry="21.8" fill="#fff" opacity="0.38"/></g><g><path d="M444.5,317.5 q0,-4 4,-4 h32.0 q4,0 4,4 v70.4 q0,13.6 -13.6,13.6 h-12.8 q-13.6,0 -13.6,-13.6 z" fill="url(#g-F4F1E4)" stroke="#CCC8B2" stroke-width="1.6"/><ellipse cx="459.7" cy="348.8" rx="6.4" ry="21.8" fill="#fff" opacity="0.38"/></g><g><path d="M487.5,322.3 q0,-4 4,-4 h36.0 q4,0 4,4 v69.0 q0,15.0 -15.0,15.0 h-14.1 q-15.0,0 -15.0,-15.0 z" fill="url(#g-F4F1E4)" stroke="#CCC8B2" stroke-width="1.6"/><ellipse cx="504.2" cy="353.6" rx="7.0" ry="21.8" fill="#fff" opacity="0.38"/></g><g><path d="M534.5,330.2 q0,-4 4,-4 h38.0 q4,0 4,4 v68.4 q0,15.6 -15.6,15.6 h-14.7 q-15.6,0 -15.6,-15.6 z" fill="url(#g-F4F1E4)" stroke="#CCC8B2" stroke-width="1.6"/><ellipse cx="552.0" cy="361.4" rx="7.4" ry="21.8" fill="#fff" opacity="0.38"/></g><g><path d="M181.5,252.6 q0,-4 4,-4 h36.0 q4,0 4,4 v77.0 q0,15.0 -15.0,15.0 h-14.1 q-15.0,0 -15.0,-15.0 z" fill="url(#g-F4F1E4)" stroke="#CCC8B2" stroke-width="1.6"/><ellipse cx="198.2" cy="287.2" rx="7.0" ry="23.9" fill="#fff" opacity="0.38"/></g><g transform="rotate(-10 249.5 280.8)"><path d="M224.5,232.8 q0,-4 4,-4 h42.0 q4,0 4,4 v87.0 q0,17.0 -17.0,17.0 h-16.0 q-17.0,0 -17.0,-17.0 z" fill="url(#g-F4F1E4)" stroke="#CCC8B2" stroke-width="1.6"/><ellipse cx="243.5" cy="272.5" rx="8.0" ry="27.0" fill="#fff" opacity="0.38"/></g><g transform="rotate(14 316.5 280.3)"><path d="M291.5,235.3 q0,-4 4,-4 h42.0 q4,0 4,4 v81.0 q0,17.0 -17.0,17.0 h-16.0 q-17.0,0 -17.0,-17.0 z" fill="url(#g-F4F1E4)" stroke="#CCC8B2" stroke-width="1.6"/><ellipse cx="310.5" cy="272.4" rx="8.0" ry="25.5" fill="#fff" opacity="0.38"/></g><g transform="rotate(-6 370.5 281.5)"><path d="M338.5,229.5 q0,-4 4,-4 h56.0 q4,0 4,4 v92.0 q0,20.0 -20.0,20.0 h-24.0 q-20.0,0 -20.0,-20.0 z" fill="url(#g-F4F1E4)" stroke="#CCC8B2" stroke-width="1.6"/><ellipse cx="362.8" cy="272.6" rx="10.2" ry="29.1" fill="#fff" opacity="0.38"/></g><g transform="rotate(8 431.5 277.6)"><path d="M399.5,225.6 q0,-4 4,-4 h56.0 q4,0 4,4 v92.0 q0,20.0 -20.0,20.0 h-24.0 q-20.0,0 -20.0,-20.0 z" fill="url(#g-F4F1E4)" stroke="#CCC8B2" stroke-width="1.6"/><ellipse cx="423.8" cy="268.6" rx="10.2" ry="29.1" fill="#fff" opacity="0.38"/></g><g transform="rotate(-14 485.5 278.5)"><path d="M460.5,233.5 q0,-4 4,-4 h42.0 q4,0 4,4 v81.0 q0,17.0 -17.0,17.0 h-16.0 q-17.0,0 -17.0,-17.0 z" fill="url(#g-F4F1E4)" stroke="#CCC8B2" stroke-width="1.6"/><ellipse cx="479.5" cy="270.6" rx="8.0" ry="25.5" fill="#fff" opacity="0.38"/></g><g transform="rotate(10 550.5 278.8)"><path d="M525.5,230.8 q0,-4 4,-4 h42.0 q4,0 4,4 v87.0 q0,17.0 -17.0,17.0 h-16.0 q-17.0,0 -17.0,-17.0 z" fill="url(#g-F4F1E4)" stroke="#CCC8B2" stroke-width="1.6"/><ellipse cx="544.5" cy="270.5" rx="8.0" ry="27.0" fill="#fff" opacity="0.38"/></g><g><path d="M574.5,252.6 q0,-4 4,-4 h36.0 q4,0 4,4 v77.0 q0,15.0 -15.0,15.0 h-14.1 q-15.0,0 -15.0,-15.0 z" fill="url(#g-F4F1E4)" stroke="#CCC8B2" stroke-width="1.6"/><ellipse cx="591.2" cy="287.2" rx="7.0" ry="23.9" fill="#fff" opacity="0.38"/></g>
<path d="M100,270 Q400,160 700,270 L700,290 Q400,180 100,290 Z" fill="#E58C97"/></g>
<path d="M100,270 Q400,160 700,270 Q400,530 100,270 Z" fill="none" stroke="#9E3F4E" stroke-width="3" stroke-linejoin="round"/>
</g>
</svg>